<svg xmlns="http://www.w3.org/2000/svg" width="1200" height="800" viewBox="0 0 1200 800" role="img" aria-label="Remote SSH Codex doodle">
  <defs>
    <pattern id="rule" width="1200" height="42" patternUnits="userSpaceOnUse">
      <line x1="0" y1="41" x2="1200" y2="41" stroke="#8ec7d3" stroke-width="2"/>
    </pattern>
    <style>
      .paper{fill:#fffdf8}.ink{fill:none;stroke:#111;stroke-width:7;stroke-linecap:round;stroke-linejoin:round}.thin{fill:none;stroke:#111;stroke-width:4;stroke-linecap:round;stroke-linejoin:round}.blue{fill:#cbeefa;stroke:#111;stroke-width:5}.yellow{fill:#ffe779;stroke:#111;stroke-width:5}.red{fill:#f45c50;stroke:#111;stroke-width:5}.label{font-family:"Arial Rounded MT Bold","PingFang SC",sans-serif;font-weight:800;fill:#111}.small{font-family:"PingFang SC",sans-serif;font-weight:700;fill:#111}
    </style>
  </defs>
  <rect width="1200" height="800" fill="#eeeeec"/>
  <g transform="translate(70 46) rotate(.7 530 355)">
    <rect class="paper" width="1060" height="705"/>
    <rect width="1060" height="705" fill="url(#rule)" opacity=".9"/>
    <line x1="92" y1="0" x2="92" y2="705" stroke="#c23a78" stroke-width="4"/>
    <text x="160" y="112" class="label" font-size="64">远程环境继续跑</text>
    <text x="166" y="162" class="small" font-size="28">笔记本、Mac mini、远程主机都能接入</text>
    <g transform="translate(158 250)">
      <path class="ink" d="M20 28 C118 6 240 10 322 30 C336 112 330 216 312 286 C214 302 100 298 14 278 C0 190 2 94 20 28Z"/>
      <text x="64" y="114" class="small" font-size="34">手机</text>
      <path class="thin" d="M76 162 L236 162 M76 206 L210 206"/>
    </g>
    <g transform="translate(710 236)">
      <path class="ink" d="M28 28 C124 8 246 8 344 28 C360 128 350 248 330 330 C222 350 108 344 18 324 C0 220 2 104 28 28Z"/>
      <rect class="blue" x="70" y="88" width="212" height="126" rx="10"/>
      <text x="104" y="164" class="small" font-size="32">Remote SSH</text>
      <rect class="yellow" x="104" y="244" width="150" height="48" rx="10"/>
      <text x="132" y="278" class="small" font-size="25">运行中</text>
    </g>
    <path class="ink" d="M496 390 C558 342 620 330 696 354"/>
    <path class="ink" d="M666 320 L700 354 L656 364"/>
    <path class="thin" d="M512 455 C580 504 662 498 724 456"/>
    <text x="540" y="508" class="small" font-size="28">安全中继</text>
    <text x="156" y="640" class="small" font-size="24">用途：企业与远程开发环境段落，解释跨设备连接但凭证仍留在机器上。</text>
  </g>
</svg>
